PathFileType	4	(X/Y/Z)	C:/Users/beibeiliu/ov580/test_trc/User2\sequence.17_training_dense_right.trc
DataRate	CameraRate	NumFrames	NumMarkers	Units	OrigDataRate	OrigDataStartFrame	OrigNumFrames
120	120	18	19	mm	120	274	438
Frame#	Time	ThumbCMC			ThumbMCP			ThumbIP			ThumbTip			IndexMCP			IndexPIP			IndexTip			MiddleMCP			MiddlePIP			MiddleTip			RingMCP			RingPIP			RingTip			PinkyMCP			PinkyPIP			PinkyTip			BackHand1			BackHand2			BackHand3	
		X0	Y0	Z0	X1	Y1	Z1	X2	Y2	Z2	X3	Y3	Z3	X4	Y4	Z4	X5	Y5	Z5	X6	Y6	Z6	X7	Y7	Z7	X8	Y8	Z8	X9	Y9	Z9	X10	Y10	Z10	X11	Y11	Z11	X12	Y12	Z12	X13	Y13	Z13	X14	Y14	Z14	X15	Y15	Z15	X16	Y16	Z16	X17	Y17	Z17	X18	Y18	Z18	
273	2.275	30.6364	8.72348	70.2412	1.44829	11.7113	51.0447	-24.0869	11.5543	28.2942	-23.212	6.52375	-3.59523	25.8796	44.0862	-6.79033	5.42875	34.2558	-32.2154	-5.88357	3.42591	-16.996	41.2845	35.677	-26.0122	13.0229	18.2796	-47.035	4.71283	-7.83316	-20.7086	49.3123	18.7899	-34.7625	26.4017	3.25836	-48.9713	15.6624	-17.0816	-19.2892	63.874	-2.92667	-30.6946	34.1971	-11.9704	-42.8389	26.4703	-32.7034	-19.5797	82.191	9.51504	21.6163	94.9276	-0.660541	44.4972	65.7092	23.4148	46.8978	
274	2.28333	35.4016	6.82283	64.9478	5.54948	8.17106	47.7278	-19.6771	9.42743	15.4269	-14.4768	-0.426937	-10.9013	30.5298	40.7825	-18.0906	15.4136	25.9751	-41.5869	-2.04554	-0.987546	-26.1879	45.6034	32.4201	-34.9795	23.8715	11.6042	-54.8316	10.4894	-13.7907	-27.2054	58.7076	14.4933	-42.3536	37.0148	1.64095	-54.9202	26.1071	-24.4488	-27.8334	74.8482	-8.15006	-33.4519	45.7631	-20.3921	-49.2784	37.9998	-39.2978	-24.7033	88.0885	9.4092	16.8613	105.087	-2.31971	45.8495	70.3704	21.0199	42.7744	
275	2.29167	37.1747	5.55724	56.5585	5.10734	5.22569	38.1965	-10.5887	0.43254	8.51343	-10.4558	-9.01502	-18.5407	39.1939	29.8858	-23.6308	20.495	14.7292	-49.9625	5.25432	-14.1481	-30.597	56.144	20.7234	-41.1611	32.3956	0.0169617	-61.305	21.4427	-24.9468	-35.8606	69.5493	4.27174	-42.3418	48.4592	-14.2826	-60.6146	33.4926	-32.0169	-34.4776	80.9141	-14.5316	-38.9502	54.2011	-28.3461	-50.4739	43.8394	-47.055	-28.2118	93.7208	2.86432	8.47357	105.264	-0.243907	43.4929	74.2961	17.8447	38.7209	
276	2.3	40.551	1.89965	53.3242	8.07321	-2.36675	34.4724	-12.8555	-10.5834	6.37903	-7.2772	-23.9347	-23.1057	41.9409	18.394	-31.3533	28.9691	-2.15927	-55.9268	11.8592	-29.4082	-33.8963	57.9458	9.18779	-44.2341	39.2135	-17.9121	-65.6518	29.6326	-41.3416	-38.1625	71.4431	-8.21308	-50.4734	52.0066	-30.5777	-61.889	41.6827	-47.0064	-35.8675	85.2225	-23.6675	-38.5038	61.638	-42.8647	-51.1119	50.5881	-60.4899	-26.975	95.454	-1.11859	6.09595	110.54	-4.54886	40.3889	76.1787	15.4877	31.1327	
277	2.30833	41.9809	-3.07653	44.5663	13.461	-12.1206	30.4765	-9.35772	-26.25	4.89657	-3.88254	-43.0103	-15.0894	41.6857	-0.834841	-39.1158	26.6475	-23.2583	-56.2977	18.8788	-50.1513	-28.4105	60.1972	-9.88411	-49.398	42.5866	-37.808	-65.173	34.6937	-59.2475	-27.5227	72.4171	-25.1324	-50.9974	59.1917	-49.9712	-60.8581	44.4393	-62.1093	-26.4165	91.1304	-39.9613	-36.7536	68.9381	-64.8013	-47.9148	56.9378	-72.0119	-19.1289	99.113	-8.3895	3.2046	111.836	-2.87444	36.9875	73.996	13.9	26.904	
278	2.31667	40.0184	-7.41637	47.7536	13.3401	-22.4338	34.1088	-8.77879	-41.7661	14.4368	-2.64879	-61.732	-8.17612	35.5903	-17.8776	-37.4472	23.6045	-47.5984	-48.789	20.6418	-66.6423	-21.3367	57.1944	-30.32	-48.7002	38.6136	-58.558	-57.6867	32.7255	-74.6609	-20.248	69.0565	-42.131	-47.9383	55.5919	-69.2341	-52.1226	49.4839	-77.8766	-17.2691	91.1891	-52.8097	-32.7564	72.1906	-80.0439	-41.6051	60.2155	-88.1868	-7.43326	97.6278	-16.3075	1.68675	114.696	-5.9046	32.8231	72.1046	6.6925	23.7489	
279	2.325	41.5177	-10.6967	52.7963	11.3489	-27.406	45.6596	-12.411	-48.5495	29.708	-7.59067	-70.3646	8.9796	31.5284	-32.8991	-31.2653	18.5112	-62.8054	-36.9187	13.023	-77.0781	-7.57773	48.7016	-42.63	-41.8921	31.6557	-76.4815	-44.4776	30.3275	-85.2828	-7.7473	62.6665	-53.6345	-41.2512	48.7868	-82.5536	-42.1726	46.4697	-89.2972	-7.73564	87.3213	-64.841	-28.8404	66.2609	-91.1945	-31.832	56.0919	-96.1897	1.1759	98.1171	-22.1945	4.76542	108.488	-7.73623	29.9116	71.9403	1.86165	23.2603	
280	2.33333	39.4096	-10.1039	60.034	10.1775	-25.4367	54.4369	-14.3557	-49.4347	35.33	-13.9225	-71.7597	16.9734	23.4224	-36.2882	-22.8975	5.98781	-66.7605	-26.1923	6.45756	-76.846	7.81844	35.9708	-48.9683	-38.2061	22.216	-79.1607	-35.5752	24.1198	-85.5335	6.52405	50.1524	-59.3599	-35.6661	36.0381	-84.5002	-34.3076	39.8057	-90.8743	3.73553	75.7422	-66.3933	-23.0115	54.0407	-95.4576	-24.2424	48.4327	-96.9431	9.55728	87.2883	-25.7387	3.32657	105.559	-12.3983	29.4026	65.0573	-2.37957	25.1176	
281	2.34167	36.0979	-6.04187	63.163	3.85232	-19.7486	58.1538	-18.9925	-40.3799	42.1189	-23.2388	-62.5606	24.1508	13.617	-29.9161	-15.4765	-5.78435	-58.3183	-19.3424	-1.09963	-72.5859	11.6691	27.6467	-42.5002	-30.0225	4.89869	-74.4571	-25.368	14.7625	-81.301	12.5222	45.1991	-55.3823	-28.8345	24.0579	-81.8238	-26.5458	27.5725	-83.311	10.7477	64.0076	-63.9835	-19.5829	41.1643	-89.2365	-20.4612	39.1909	-97.7434	14.7915	79.7524	-24.5573	8.51104	98.573	-11.4819	32.6561	60.6117	1.67978	30.6409	
282	2.35	30.5903	-0.67838	69.432	-2.87339	-11.284	66.5038	-26.2909	-29.5536	51.4393	-29.9799	-50.6038	30.2321	0.4675	-19.3745	-11.1699	-11.819	-48.1475	-16.5071	-8.11701	-63.3865	16.3996	16.7395	-34.4737	-27.1051	-3.40128	-64.7203	-21.625	3.86361	-71.461	17.1014	30.4585	-46.614	-28.1486	13.9955	-71.2763	-23.9704	16.502	-75.9009	11.4574	54.5158	-54.7568	-17.8808	28.6544	-80.8715	-18.3794	25.0906	-87.3382	13.9581	75.2639	-16.9051	10.4422	93.6336	-5.60655	38.2998	54.172	8.73129	35.3663	
283	2.35833	28.1879	3.2749	73.9385	-5.49212	-5.79224	68.1823	-30.0042	-21.5269	51.9668	-32.736	-38.7109	30.064	-1.73216	-3.17124	-4.97408	-18.9319	-34.1362	-14.5483	-17.921	-51.2313	16.8618	10.9505	-16.8281	-21.0261	-8.89782	-48.6255	-23.0706	-2.18033	-61.4701	14.2583	28.3673	-32.4802	-26.5454	7.02323	-57.8926	-25.4655	10.6806	-67.6088	7.88511	49.4631	-43.7963	-18.4895	24.2107	-67.9029	-22.9609	19.0495	-76.7911	7.14363	68.3371	-8.77775	14.3518	91.8781	-2.18296	38.884	52.2837	15.49	42.0022	
284	2.36667	28.4641	7.80592	76.1679	-7.6652	2.23961	70.3281	-32.7147	-9.21304	54.7414	-38.9036	-26.739	25.277	-2.15961	11.827	-2.10944	-22.3977	-13.6662	-17.1151	-23.6587	-36.6172	12.1971	9.53139	-0.49474	-21.39	-13.6504	-30.3114	-26.2175	-9.15984	-46.4405	10.7327	24.679	-15.2592	-27.8479	6.0974	-39.0787	-31.3914	5.75325	-53.0345	5.17693	41.5445	-27.8489	-19.4	16.0172	-48.6942	-22.8696	14.036	-63.067	2.13952	68.1975	-1.07452	15.1494	90.8046	5.31507	43.5116	55.4476	21.2883	44.9296	
285	2.375	26.7502	13.0813	74.2047	-5.39494	7.67332	66.994	-33.2958	-0.889683	49.7213	-35.4381	-14.5005	22.3203	0.0327165	25.7698	-2.79109	-16.8483	1.91839	-19.9786	-22.97	-22.8693	4.9842	12.9477	17.6056	-19.6966	-11.3186	-10.4993	-30.5508	-7.75612	-32.9359	1.10388	27.2709	0.0900053	-29.3647	6.45377	-19.0559	-36.3961	7.43692	-40.9469	-3.57702	44.5071	-14.0204	-24.2582	17.054	-33.4613	-28.7671	12.7246	-51.9262	-6.05896	68.7437	12.3866	19.5352	87.6053	11.22	42.4362	54.6504	28.4182	50.7746	
286	2.38333	26.5428	14.4282	72.6648	-7.1334	10.5453	63.4367	-33.0324	2.93196	41.5581	-32.2039	-7.73483	12.2887	6.98819	36.2652	-3.96191	-12.3158	19.0717	-23.0564	-18.7455	-10.2118	-2.05222	19.2137	30.5586	-24.6999	-1.62711	6.44658	-38.6097	-6.18851	-18.3324	-4.46556	32.226	16.6858	-30.7084	9.88476	-4.38859	-38.8638	8.137	-24.3348	-11.9145	51.5684	-0.932482	-23.8958	23.6067	-17.2696	-34.825	17.2403	-40.7263	-9.87173	73.3751	17.5139	20.2511	91.1512	14.6343	47.3859	54.6694	35.2076	52.7397	
287	2.39167	25.9787	16.0117	74.4329	-5.52457	10.0552	57.3438	-28.2194	4.97491	31.3929	-20.7844	-3.14767	2.48882	12.305	46.2724	-4.09264	-8.6105	29.8959	-25.876	-10.1827	-3.11353	-4.88015	25.6355	42.6039	-19.9086	5.18711	20.8068	-42.5703	-0.45125	-9.20903	-10.5796	43.2835	25.8043	-30.7392	18.1775	6.87504	-43.3166	17.1903	-19.1438	-15.0566	57.3353	9.31143	-27.4657	30.2791	-9.91079	-38.7211	23.5973	-27.0045	-18.4444	79.3588	24.7784	20.5541	92.6435	18.631	46.31	54.9266	36.7006	54.8129	
288	2.4	25.7865	14.3688	72.0171	-5.38609	10.3968	48.1971	-21.2504	4.43542	16.2329	-11.0569	-1.24999	-12.5599	19.4684	49.7559	-8.0657	4.28783	34.3421	-31.804	-0.0946927	1.72553	-10.0243	34.343	48.6747	-25.9007	16.7477	24.8761	-46.7298	8.24901	-3.25638	-21.1026	50.1712	33.9603	-27.8785	31.3196	15.6076	-48.2005	23.0149	-9.71239	-20.6096	66.0195	16.8099	-28.624	45.1783	-0.206342	-45.3664	34.1093	-23.1068	-18.6642	82.6468	29.0482	25.8218	92.5292	24.9239	51.9436	60.5041	36.5034	54.1804	
289	2.40833	28.3894	14.8382	64.7615	-0.478466	7.96635	42.3367	-16.2738	1.3761	9.94477	-0.0666249	-3.38658	-16.4217	24.4558	52.7063	-10.5885	14.8746	34.7635	-36.7857	6.67645	5.5215	-19.3807	41.8637	51.5321	-25.1022	29.5722	30.6199	-51.8974	21.836	-2.68791	-27.7582	58.835	36.6988	-33.6046	42.8847	16.8781	-52.9592	36.0743	-9.45212	-28.6151	76.2768	20.5074	-30.6198	53.1866	3.69323	-44.9743	46.132	-19.2327	-27.9368	89.5421	28.0909	24.2275	100.496	22.6641	53.4353	61.6869	40.8435	52.9919	
290	2.41667	30.083	13.7897	59.4946	5.16106	5.22115	31.3388	-3.84686	-0.734086	-3.16397	13.0855	-4.59237	-28.0001	31.9107	51.5233	-19.9073	25.377	30.0195	-44.4969	19.7382	2.5985	-27.5607	53.2439	49.4801	-32.9236	39.1443	26.6664	-57.2717	31.6449	-4.38196	-31.1957	69.4412	36.2204	-33.8971	55.6449	15.7615	-55.7946	44.9188	-9.24542	-31.9961	90.4372	18.1619	-27.9283	65.0358	2.94314	-47.2728	58.5752	-24.1117	-29.0548	95.0631	29.2962	22.2872	103.082	23.6957	52.8384	64.7336	40.1272	48.6285	
